<?xml version="1.0" standalone="no"?>
<!DOCTYPE svg PUBLIC "-//W3C//DTD SVG 20010904//EN"
 "http://www.w3.org/TR/2001/REC-SVG-20010904/DTD/svg10.dtd">
<svg version="1.0" xmlns="http://www.w3.org/2000/svg"
 width="1080.000000pt" height="1080.000000pt" viewBox="0 0 1080.000000 1080.000000"
 preserveAspectRatio="xMidYMid meet">

<g transform="translate(0.000000,1080.000000) scale(0.100000,-0.100000)"
fill="#000000" stroke="none">
<path d="M0 10678 c0 -113 1 -120 16 -102 15 17 15 17 0 -8 -14 -25 -16 -136
-16 -1130 l0 -1103 25 40 c13 22 25 37 25 32 0 -4 -11 -25 -25 -47 l-25 -40 0
-4160 0 -4160 5400 0 5400 0 0 5170 0 5170 -279 0 c-277 0 -279 0 -296 -22
-17 -23 -17 -23 -2 2 l14 25 282 3 281 2 0 225 0 225 -5325 0 c-3545 0 -5325
-3 -5325 -10 0 -5 -5 -10 -11 -10 -5 0 -7 5 -4 10 4 6 -20 10 -64 10 l-71 0 0
-122z m7891 61 c-12 -19 -21 -30 -21 -26 0 14 31 69 36 64 3 -3 -4 -20 -15
-38z m-7772 2 c-6 -17 -17 -35 -25 -42 -8 -6 -14 -16 -14 -21 0 -5 -11 -26
-25 -46 -14 -20 -25 -33 -25 -29 0 8 91 167 96 167 2 0 -2 -13 -7 -29z m7711
-103 c-23 -35 -23 -31 -1 15 8 15 16 25 19 22 2 -2 -5 -19 -18 -37z m-64 -115
c-18 -35 -45 -70 -46 -60 0 8 51 87 57 87 2 0 -3 -12 -11 -27z m-3936 -83 c-6
-12 -14 -19 -17 -17 -2 3 1 15 7 27 6 12 14 19 17 17 2 -3 -1 -15 -7 -27z
m-754 -97 c-428 -2 -603 -6 -613 -14 -11 -9 -12 -8 -7 5 6 15 58 16 613 14
l606 -3 -599 -2z m3890 0 c-554 -3 -601 -4 -619 -21 -19 -17 -19 -16 -6 6 l14
22 605 -2 605 -3 -599 -2z m-4535 -70 c-12 -20 -14 -14 -5 12 4 9 9 14 11 11
3 -2 0 -13 -6 -23z m3890 4 c-10 -9 -11 -8 -5 6 3 10 9 15 12 12 3 -3 0 -11
-7 -18z m3872 -24 c-10 -15 -27 -44 -38 -65 -10 -20 -27 -47 -38 -60 -10 -12
-4 4 14 37 50 94 71 126 76 121 3 -3 -3 -17 -14 -33z m-7801 -45 c-7 -7 -12
-8 -12 -2 0 14 12 26 19 19 2 -3 -1 -11 -7 -17z m-74 -133 c-6 -14 -13 -23
-16 -21 -7 7 9 46 18 46 5 0 4 -11 -2 -25z m7751 -32 c-33 -59 -62 -98 -39
-53 24 47 62 110 67 110 2 0 -10 -26 -28 -57z m-3908 -46 c-10 -9 -11 -8 -5 6
3 10 9 15 12 12 3 -3 0 -11 -7 -18z m-3916 -48 c-9 -17 -19 -29 -22 -26 -5 5
25 57 33 57 3 0 -3 -14 -11 -31z m7765 -9 c-6 -11 -13 -20 -16 -20 -2 0 0 9 6
20 6 11 13 20 16 20 2 0 0 -9 -6 -20z m-40 -74 c-29 -49 -35 -45 -10 5 12 23
24 38 27 35 3 -2 -5 -21 -17 -40z m-7836 -105 c-15 -28 -29 -50 -30 -48 -2 2
9 26 24 55 14 28 28 49 30 47 2 -2 -8 -26 -24 -54z m7796 39 c-6 -11 -13 -20
-16 -20 -2 0 0 9 6 20 6 11 13 20 16 20 2 0 0 -9 -6 -20z m-35 -61 c-9 -17
-19 -29 -22 -26 -5 5 25 57 33 57 3 0 -3 -14 -11 -31z m-54 -92 c-10 -9 -11
-8 -5 6 3 10 9 15 12 12 3 -3 0 -11 -7 -18z m-7799 -47 c-9 -16 -19 -25 -21
-19 -3 9 26 49 35 49 2 0 -5 -13 -14 -30z m7773 1 c-8 -17 -21 -33 -27 -37 -8
-5 -7 1 3 16 8 14 19 31 23 38 15 25 16 11 1 -17z m-7824 -84 c-10 -9 -11 -8
-5 6 3 10 9 15 12 12 3 -3 0 -11 -7 -18z m-36 -68 c-9 -17 -19 -28 -22 -25 -6
6 23 56 32 56 3 0 -2 -14 -10 -31z m7785 23 c0 -5 -7 -17 -15 -28 -14 -18 -14
-17 -4 9 12 27 19 34 19 19z m-46 -82 c-10 -16 -20 -27 -22 -25 -5 5 26 55 34
55 3 0 -3 -13 -12 -30z m-9167 -173 c-26 -27 -33 -27 -17 2 6 12 17 21 25 21
10 0 8 -7 -8 -23z m96 16 c-13 -2 -33 -2 -45 0 -13 2 -3 4 22 4 25 0 35 -2 23
-4z m1094 1 c-3 -3 -12 -4 -19 -1 -8 3 -5 6 6 6 11 1 17 -2 13 -5z m3673 -1
c-556 -7 -990 -7 -990 0 0 4 271 6 603 5 331 -2 505 -4 387 -5z m2908 -13 c-7
-10 -14 -17 -17 -15 -4 4 18 35 25 35 2 0 -1 -9 -8 -20z m895 13 c-144 -2
-382 -2 -530 0 -147 1 -29 2 262 2 292 0 412 -1 268 -2z m300 0 c-7 -2 -19 -2
-25 0 -7 3 -2 5 12 5 14 0 19 -2 13 -5z m-9028 -113 c-9 -18 -18 -30 -21 -28
-2 3 3 19 12 37 9 18 18 30 21 28 2 -3 -3 -19 -12 -37z m7776 3 c-12 -20 -14
-14 -5 12 4 9 9 14 11 11 3 -2 0 -13 -6 -23z m-30 -50 c-12 -20 -14 -14 -5 12
4 9 9 14 11 11 3 -2 0 -13 -6 -23z m-7837 -112 c-15 -28 -30 -49 -32 -47 -2 3
9 27 24 55 16 27 30 48 32 47 2 -2 -9 -27 -24 -55z m7787 26 c-10 -9 -11 -8
-5 6 3 10 9 15 12 12 3 -3 0 -11 -7 -18z m-30 -50 c-10 -9 -11 -8 -5 6 3 10 9
15 12 12 3 -3 0 -11 -7 -18z m-40 -74 c-12 -20 -14 -14 -5 12 4 9 9 14 11 11
3 -2 0 -13 -6 -23z m-7779 -5 c-7 -7 -12 -8 -12 -2 0 14 12 26 19 19 2 -3 -1
-11 -7 -17z m3884 -4 c-4 -9 -9 -15 -11 -12 -3 3 -3 13 1 22 4 9 9 15 11 12 3
-3 3 -13 -1 -22z m-3926 -74 c-6 -12 -14 -20 -17 -17 -2 3 1 14 8 26 17 26 24
19 9 -9z m7751 -37 c-11 -21 -20 -35 -21 -31 0 12 33 78 38 74 2 -2 -6 -21
-17 -43z m-7826 -94 c-9 -17 -19 -29 -22 -26 -5 5 25 57 33 57 3 0 -3 -14 -11
-31z m7775 1 c-6 -12 -14 -20 -17 -17 -2 3 1 14 8 26 17 26 24 19 9 -9z
m-7835 -102 c-28 -53 -65 -107 -65 -94 0 4 15 31 34 60 18 29 37 63 41 75 4
12 9 20 12 17 3 -3 -7 -29 -22 -58z m7791 26 c-4 -9 -9 -15 -11 -12 -3 3 -3
13 1 22 4 9 9 15 11 12 3 -3 3 -13 -1 -22z m-55 -87 c-10 -9 -11 -8 -5 6 3 10
9 15 12 12 3 -3 0 -11 -7 -18z m-23 -42 c-6 -14 -13 -23 -15 -21 -5 5 15 46
22 46 3 0 -1 -11 -7 -25z m-3928 -65 c-6 -11 -13 -20 -16 -20 -2 0 0 9 6 20 6
11 13 20 16 20 2 0 0 -9 -6 -20z m3841 -87 c-12 -20 -14 -14 -5 12 4 9 9 14
11 11 3 -2 0 -13 -6 -23z m-1413 -197 c-13 -19 -24 -33 -26 -31 -5 4 37 65 44
65 2 0 -6 -15 -18 -34z m105 27 c-13 -2 -35 -2 -50 0 -16 2 -5 4 22 4 28 0 40
-2 28 -4z m3767 -43 c-6 -11 -13 -20 -16 -20 -2 0 0 9 6 20 6 11 13 20 16 20
2 0 0 -9 -6 -20z m-7791 -34 c-7 -14 -16 -26 -21 -26 -5 0 -1 13 8 30 21 35
30 33 13 -4z m7731 -68 c-23 -35 -23 -31 -1 15 8 15 16 25 19 22 2 -2 -5 -19
-18 -37z m-3906 -43 c-9 -14 -18 -25 -21 -25 -5 0 5 18 20 38 17 22 18 13 1
-13z m-3904 -25 c-6 -11 -13 -20 -16 -20 -2 0 0 9 6 20 6 11 13 20 16 20 2 0
0 -9 -6 -20z m-39 -67 c-12 -20 -14 -14 -5 12 4 9 9 14 11 11 3 -2 0 -13 -6
-23z m7771 -5 c-7 -7 -12 -8 -12 -2 0 14 12 26 19 19 2 -3 -1 -11 -7 -17z
m-69 -118 c-3 -12 -8 -19 -11 -16 -5 6 5 36 12 36 2 0 2 -9 -1 -20z m-4313
-16 c18 -4 50 -24 72 -45 40 -38 40 -39 36 -99 -4 -52 -9 -65 -39 -96 -63 -65
-145 -82 -220 -44 -59 31 -81 72 -76 144 3 56 6 62 46 97 23 21 52 40 64 42
37 7 83 7 117 1z m2889 -63 c67 -48 87 -156 41 -225 -29 -42 -92 -76 -141 -76
-41 0 -105 35 -132 71 -21 29 -33 103 -23 143 8 34 54 86 91 102 43 20 125 13
164 -15z m-4831 -89 c10 -7 3 -55 -33 -228 -94 -447 -98 -495 -47 -556 34 -40
79 -58 144 -58 94 1 167 50 207 140 16 37 79 324 141 642 14 70 13 70 175 66
119 -3 120 -3 123 -28 2 -13 -6 -65 -17 -115 -12 -49 -37 -169 -56 -265 -68
-346 -106 -445 -209 -543 -102 -99 -194 -135 -361 -144 -221 -11 -369 59 -449
211 -24 45 -26 59 -26 170 0 70 7 149 15 186 8 36 35 166 60 289 25 124 51
228 57 233 17 10 259 10 276 0z m3036 -44 c-4 -23 -14 -76 -23 -117 l-16 -76
-165 -5 -164 -5 -82 -403 c-44 -222 -85 -407 -91 -413 -6 -6 -67 -8 -149 -7
l-139 3 1 25 c1 22 76 388 138 672 13 58 21 111 17 116 -4 6 -68 12 -153 14
-80 2 -149 6 -153 10 -4 3 7 35 24 70 20 39 31 78 31 105 0 31 4 43 18 46 9 3
218 5 465 6 l447 1 -6 -42z m3109 27 c-3 -9 -8 -14 -10 -11 -3 3 -2 9 2 15 9
16 15 13 8 -4z m-50 -90 c-3 -9 -8 -14 -10 -11 -3 3 -2 9 2 15 9 16 15 13 8
-4z m-47 -83 c-18 -16 -18 -16 -6 6 6 13 14 21 18 18 3 -4 -2 -14 -12 -24z
m-26 -42 c-6 -11 -13 -20 -16 -20 -2 0 0 9 6 20 6 11 13 20 16 20 2 0 0 -9 -6
-20z m-4621 -39 c28 -18 62 -46 76 -63 37 -44 59 -129 52 -202 -10 -101 -97
-520 -110 -528 -7 -4 -67 -8 -135 -8 -107 0 -123 2 -129 17 -4 10 11 101 32
203 22 102 41 215 43 251 3 59 1 69 -19 88 -74 68 -218 31 -270 -70 -11 -22
-40 -136 -63 -254 -24 -117 -47 -218 -50 -224 -9 -13 -244 -15 -265 -2 -11 7
-9 23 13 93 14 47 37 113 51 149 26 66 65 224 106 436 16 83 29 125 39 129 8
4 59 9 113 12 l97 5 0 -32 c0 -37 7 -38 55 -10 65 39 114 49 217 46 89 -4 100
-6 147 -36z m2012 23 c30 -9 71 -29 91 -45 49 -38 64 -37 72 6 9 44 19 47 166
43 l115 -3 -1 -35 c-2 -46 -131 -712 -150 -772 -5 -16 -20 -18 -135 -18 l-129
0 0 30 c0 35 -11 37 -50 10 -47 -33 -108 -50 -184 -50 -89 0 -132 12 -193 54
-123 84 -177 246 -143 427 46 245 313 420 541 353z m1050 -8 c66 -20 97 -38
150 -85 47 -41 75 -90 66 -113 -2 -7 -53 -35 -111 -62 l-107 -49 -31 38 c-105
126 -302 62 -338 -110 -27 -129 34 -215 153 -216 68 -1 103 13 152 62 l41 39
94 -58 c51 -31 95 -62 97 -68 6 -19 -92 -118 -144 -146 -88 -48 -154 -61 -282
-56 -106 4 -123 7 -186 36 -79 38 -139 95 -156 151 -10 33 -6 62 25 219 20
100 36 198 36 219 0 89 115 178 275 213 54 12 209 4 266 -14z m-2505 0 c7 -18
-7 -95 -86 -486 -34 -168 -67 -311 -73 -319 -9 -11 -34 -12 -117 -8 -58 3
-112 8 -121 11 -14 6 -12 25 18 174 19 92 42 228 53 302 29 202 50 312 62 327
16 20 257 18 264 -1z m4015 -59 c-10 -9 -11 -8 -5 6 3 10 9 15 12 12 3 -3 0
-11 -7 -18z m-29 -56 c-9 -16 -18 -28 -21 -26 -4 5 27 55 34 55 2 0 -4 -13
-13 -29z m-9201 -224 c-10 -9 -11 -8 -5 6 3 10 9 15 12 12 3 -3 0 -11 -7 -18z
m-21 -34 c0 -5 -10 -19 -21 -33 l-20 -25 16 33 c15 30 25 41 25 25z m-99 -170
c-11 -21 -27 -47 -36 -58 -14 -16 -2 9 42 88 2 4 6 7 9 7 2 0 -4 -17 -15 -37z
m-95 -165 c-20 -35 -36 -59 -36 -55 0 12 64 126 68 122 2 -2 -12 -32 -32 -67z
m-55 -95 c-12 -20 -14 -14 -5 12 4 9 9 14 11 11 3 -2 0 -13 -6 -23z m-31 -53
c-6 -11 -13 -20 -16 -20 -2 0 0 9 6 20 6 11 13 20 16 20 2 0 0 -9 -6 -20z
m-49 -87 c-12 -20 -14 -14 -5 12 4 9 9 14 11 11 3 -2 0 -13 -6 -23z m-79 -135
c-7 -7 -12 -8 -12 -2 0 14 12 26 19 19 2 -3 -1 -11 -7 -17z m2048 -235 c0 -54
14 -49 29 11 10 42 32 63 52 50 5 -3 9 -66 9 -140 0 -112 -2 -134 -15 -134 -8
0 -16 6 -17 13 -2 16 -5 56 -7 86 -1 34 -13 19 -31 -42 -12 -40 -21 -53 -38
-55 -22 -3 -22 -2 -22 131 0 73 3 137 7 140 14 15 33 -18 33 -60z m170 13 c0
-49 12 -71 34 -63 12 5 16 20 16 56 0 33 5 51 14 54 8 3 17 3 20 0 3 -4 6 -66
6 -140 0 -125 -1 -133 -19 -133 -17 0 -20 8 -23 53 -3 44 -6 52 -23 52 -17 0
-20 -8 -23 -52 -3 -45 -6 -53 -23 -53 -18 0 -19 8 -19 133 0 74 3 136 6 140
16 16 34 -8 34 -47z m247 38 c4 -10 -2 -23 -15 -33 -19 -14 -22 -27 -24 -121
-3 -97 -4 -105 -23 -105 -19 0 -20 8 -23 105 -2 94 -5 107 -24 121 -37 28 -17
49 47 49 42 0 57 -4 62 -16z m138 -9 c0 -14 -8 -21 -30 -25 -25 -4 -30 -10
-30 -35 0 -23 5 -31 22 -33 35 -5 37 -32 3 -45 -25 -9 -30 -17 -30 -44 0 -29
3 -32 32 -35 22 -2 34 -9 36 -21 3 -16 -3 -18 -55 -15 l-58 3 -3 129 c-3 146
-2 148 68 144 37 -3 45 -6 45 -23z m153 -2 c6 -9 12 -40 12 -68 0 -55 -16 -79
-55 -87 -16 -2 -21 -13 -25 -48 -4 -37 -9 -45 -25 -45 -19 0 -20 8 -23 129 -2
97 1 132 10 138 19 13 91 0 106 -19z m322 17 c13 -7 21 -7 25 0 3 5 31 10 61
10 63 0 80 -19 45 -51 -19 -18 -21 -31 -21 -124 0 -96 -2 -105 -19 -105 -21 0
-31 49 -31 159 0 60 -2 67 -24 77 -14 6 -28 8 -33 3 -4 -4 -21 -9 -38 -11 -26
-3 -30 -7 -30 -33 0 -23 5 -30 25 -35 37 -9 37 -36 0 -49 -26 -9 -31 -15 -28
-38 2 -22 9 -29 33 -33 18 -3 31 -12 33 -23 3 -14 -5 -17 -52 -17 -54 0 -56 1
-56 28 0 15 -3 71 -7 124 -4 72 -2 102 7 113 14 17 81 20 110 5z m296 2 c6 -4
14 -25 18 -47 16 -92 30 -96 40 -11 8 57 22 72 57 61 17 -6 19 -19 19 -141 0
-135 0 -135 -22 -132 -16 2 -25 12 -29 33 l-5 30 -8 -32 c-6 -25 -13 -33 -30
-33 -17 0 -26 8 -33 33 l-11 32 -7 -32 c-5 -23 -13 -33 -26 -33 -18 0 -19 10
-19 134 0 133 2 143 35 145 6 0 15 -3 21 -7z m253 -1 c12 -8 49 -198 51 -258
0 -21 -38 -15 -50 7 -6 11 -19 20 -30 20 -10 0 -22 -9 -25 -20 -7 -22 -45 -28
-45 -7 0 6 9 66 20 131 21 130 36 154 79 127z m179 -4 c15 -17 2 -34 -28 -38
-25 -4 -25 -5 -28 -117 -3 -111 -3 -113 -25 -110 -21 3 -22 8 -25 127 -2 82 1
128 9 137 14 18 83 18 97 1z m129 5 c13 -8 55 -250 46 -264 -9 -15 -32 -8 -38
12 -4 12 -15 20 -30 20 -14 0 -25 -7 -28 -20 -3 -12 -14 -20 -26 -20 -12 0
-21 1 -21 3 0 11 32 217 37 237 9 36 33 49 60 32z m189 -13 c8 -6 12 -50 12
-124 0 -106 -1 -116 -21 -130 -12 -8 -30 -15 -40 -15 -27 0 -69 47 -65 72 4
28 26 35 35 11 12 -34 24 -44 39 -32 20 17 17 50 -8 76 l-22 23 23 21 c13 12
21 30 19 42 -4 29 -34 34 -43 7 -4 -13 -13 -20 -23 -18 -27 5 -25 35 3 64 20
20 32 24 53 19 15 -4 32 -11 38 -16z m1668 0 c19 -15 26 -29 24 -48 -4 -35
-34 -40 -42 -7 -7 29 -31 35 -40 10 -12 -31 -6 -161 7 -173 16 -13 37 4 37 31
0 11 7 18 20 18 16 0 20 -7 20 -30 0 -37 -31 -70 -65 -70 -14 0 -34 9 -45 20
-17 17 -20 33 -20 123 0 107 3 117 35 135 28 16 39 15 69 -9z m330 0 c28 -22
28 -22 24 -131 -3 -120 -12 -138 -68 -138 -49 0 -65 31 -68 135 -4 100 5 130
41 145 33 13 42 12 71 -11z m315 -4 c10 -10 13 -41 12 -122 -1 -97 -3 -110
-22 -125 -26 -22 -58 -23 -85 -4 -16 12 -19 29 -22 120 -4 102 -3 106 23 132
20 20 32 24 53 19 15 -3 33 -12 41 -20z m219 1 c20 -20 20 -70 0 -74 -12 -2
-19 5 -24 23 -4 17 -12 25 -23 23 -13 -3 -16 -18 -16 -97 0 -106 14 -129 41
-66 13 31 17 35 30 24 32 -27 -12 -99 -61 -99 -46 0 -56 27 -53 151 3 110 4
114 28 126 26 13 56 9 78 -11z m-3820 -41 c6 -86 52 -80 52 6 0 43 3 49 20 49
20 0 20 -5 18 -132 -3 -116 -5 -133 -20 -136 -14 -3 -17 6 -20 50 -3 46 -6 53
-25 56 -20 3 -22 -2 -25 -50 -3 -46 -6 -53 -25 -56 -23 -3 -23 -3 -23 133 0
136 0 136 23 133 19 -3 22 -10 25 -53z m1377 18 c12 -70 11 -69 20 -48 4 11
14 35 21 53 9 21 20 32 33 32 20 0 21 -6 21 -136 0 -124 -2 -135 -17 -132 -14
2 -19 15 -21 51 -4 59 -18 60 -33 2 -14 -57 -45 -78 -59 -41 -9 26 -12 207 -4
239 9 31 33 19 39 -20z m177 -15 c3 -45 6 -53 23 -53 17 0 20 8 23 53 3 44 6
53 20 50 15 -3 17 -19 17 -133 0 -116 -2 -130 -17 -133 -15 -3 -18 4 -18 40 0
51 -12 73 -34 65 -12 -5 -16 -20 -16 -57 0 -42 -3 -50 -19 -50 -15 0 -19 11
-24 68 -9 88 -9 187 0 195 3 4 14 7 24 7 15 0 19 -10 21 -52z m313 42 c3 -5
-6 -16 -19 -25 -24 -16 -25 -22 -28 -123 -3 -99 -4 -107 -23 -107 -19 0 -20 8
-23 113 -2 88 -6 112 -17 112 -17 0 -28 17 -20 30 8 13 122 13 130 0z m130
-22 c22 -134 33 -223 29 -230 -10 -15 -33 -8 -39 12 -4 13 -15 20 -32 20 -16
0 -27 -7 -30 -20 -5 -20 -28 -27 -36 -12 -5 9 29 238 38 252 3 5 19 10 35 10
25 0 30 -5 35 -32z m103 -6 c4 -42 18 -41 39 3 10 21 24 35 35 35 24 0 23 -11
-8 -71 l-25 -51 25 -70 c14 -38 26 -71 26 -74 0 -2 -9 -4 -21 -4 -13 0 -25 11
-35 35 -18 44 -32 45 -36 3 -2 -25 -8 -33 -23 -33 -19 0 -20 8 -23 119 -3 133
0 149 25 144 12 -2 19 -14 21 -36z m242 22 c0 -9 -9 -18 -20 -21 -18 -5 -20
-14 -20 -107 0 -106 -8 -133 -34 -123 -13 5 -16 25 -16 118 0 102 -2 111 -20
116 -11 3 -20 12 -20 19 0 11 16 14 65 14 53 0 65 -3 65 -16z m60 -21 c0 -49
16 -77 26 -48 25 70 34 85 53 85 20 0 21 -6 21 -136 0 -124 -2 -135 -17 -132
-13 2 -19 16 -24 53 l-5 50 -17 -37 c-9 -21 -17 -41 -17 -46 0 -5 -7 -15 -15
-22 -12 -10 -18 -10 -30 0 -12 10 -15 38 -15 135 0 67 3 125 7 128 18 19 33 5
33 -30z m178 -31 c2 -34 7 -62 12 -62 6 0 13 0 18 0 4 0 9 28 12 62 4 55 8 63
25 63 19 0 20 -7 20 -130 0 -123 -1 -130 -20 -130 -16 0 -21 8 -23 43 -3 36
-6 42 -26 42 -43 0 -59 23 -64 88 -5 72 1 95 25 90 15 -3 19 -16 21 -66z m240
51 c-2 -12 -14 -19 -36 -21 -29 -3 -32 -6 -32 -38 0 -21 5 -34 13 -34 7 0 22
-7 33 -15 18 -14 18 -15 -13 -27 -28 -10 -33 -18 -33 -44 0 -33 13 -44 52 -44
13 0 18 -6 16 -17 -2 -13 -15 -19 -46 -21 -68 -5 -72 3 -72 143 0 67 3 125 7
128 3 4 31 7 60 7 46 0 54 -3 51 -17z m232 -18 c0 -19 4 -35 9 -35 5 0 18 16
30 35 11 19 27 35 36 35 20 0 19 -13 -5 -60 -11 -22 -20 -50 -20 -64 0 -14 9
-48 20 -76 25 -63 25 -70 2 -70 -13 0 -24 13 -35 40 -8 22 -20 40 -26 40 -6 0
-11 -18 -11 -40 0 -33 -3 -40 -20 -40 -19 0 -20 7 -20 135 0 128 1 135 20 135
16 0 20 -7 20 -35z m395 15 c0 -9 -12 -17 -30 -20 l-30 -5 -3 -113 c-2 -104
-4 -112 -22 -112 -19 0 -20 7 -20 128 0 71 3 132 7 136 4 4 28 6 53 4 32 -2
45 -7 45 -18z m465 -40 c8 -89 46 -67 49 28 1 26 5 33 19 30 14 -3 18 -16 20
-73 5 -103 -6 -195 -24 -195 -10 0 -14 12 -14 39 0 52 -8 71 -31 71 -15 0 -18
-9 -21 -52 -3 -45 -6 -53 -23 -53 -19 0 -20 8 -23 119 -3 133 0 149 25 144 14
-2 19 -16 23 -58z m225 38 c8 -37 35 -212 35 -230 0 -24 -27 -23 -40 2 -6 11
-21 20 -34 20 -15 0 -26 -7 -29 -20 -4 -17 -37 -30 -37 -15 0 10 31 221 35
243 4 17 12 22 35 22 23 0 31 -5 35 -22z m175 2 c14 -14 20 -33 20 -62 0 -53
-9 -67 -52 -87 -29 -14 -33 -22 -36 -59 -3 -34 -7 -42 -23 -42 -18 0 -19 8
-19 135 l0 135 45 0 c32 0 51 -6 65 -20z m168 -117 c2 -128 2 -133 -18 -133
-17 0 -20 6 -20 45 0 33 -5 47 -16 52 -21 8 -34 -14 -34 -59 0 -32 -3 -38 -21
-38 -19 0 -20 4 -15 58 3 31 5 62 6 67 0 6 -2 31 -6 58 -9 66 12 89 75 85 l46
-3 3 -132z m88 102 c8 -19 19 -35 24 -35 6 0 10 16 10 35 0 28 4 35 20 35 14
0 20 -7 20 -22 0 -13 4 -29 9 -37 7 -12 13 -7 27 22 11 23 25 37 36 37 23 0
23 -10 -4 -64 -24 -49 -25 -33 19 -188 4 -13 0 -18 -15 -18 -15 0 -24 11 -34
42 -20 59 -38 61 -38 4 0 -39 -3 -46 -20 -46 -17 0 -20 7 -20 46 0 56 -20 56
-36 -2 -8 -28 -17 -40 -32 -42 -27 -4 -27 0 -2 73 11 32 20 67 20 77 0 10 -9
36 -20 58 -25 49 -25 60 1 60 13 0 25 -11 35 -35z m307 29 c13 -13 -7 -34 -34
-34 -23 0 -30 -6 -35 -27 -7 -27 14 -53 43 -53 25 0 13 -28 -17 -39 -24 -8
-30 -16 -30 -39 0 -30 14 -42 51 -42 10 0 19 -7 19 -15 0 -12 -13 -15 -55 -15
l-55 0 0 135 0 135 53 0 c30 0 56 -3 60 -6z m79 -51 c3 -50 6 -58 23 -58 17 0
20 8 23 58 3 49 6 57 22 57 19 0 20 -8 20 -135 0 -127 -1 -135 -19 -135 -17 0
-20 8 -23 53 -3 44 -6 52 -23 52 -17 0 -20 -8 -23 -52 -3 -45 -6 -53 -23 -53
-18 0 -19 8 -19 135 0 127 1 135 20 135 16 0 19 -8 22 -57z m166 4 c2 -26 6
-47 10 -47 4 0 15 23 25 51 15 42 22 50 40 47 21 -3 22 -7 22 -133 0 -116 -2
-130 -17 -133 -16 -3 -18 5 -18 57 0 34 -4 61 -10 61 -5 0 -18 -27 -27 -60
-15 -50 -22 -60 -40 -60 -23 0 -23 2 -23 136 0 124 2 135 18 132 13 -2 18 -15
20 -51z m257 -87 c0 -128 -1 -135 -20 -135 -17 0 -21 8 -25 48 -7 63 -22 64
-35 2 -7 -32 -16 -50 -26 -50 -11 0 -14 23 -16 123 -1 145 4 155 76 150 l46
-3 0 -135z m1888 -130 c-3 -11 -10 -23 -16 -27 -5 -3 -8 -2 -5 3 3 5 8 17 11
27 9 24 16 22 10 -3z m-4106 -103 c-5 -15 -69 -16 -74 -1 -2 7 11 12 37 12 28
1 40 -3 37 -11z m-2602 -74 c10 -58 12 -60 24 -28 18 48 27 60 47 60 18 0 19
-9 19 -135 0 -113 -2 -135 -15 -135 -11 0 -16 13 -18 48 -4 58 -17 61 -33 7
-14 -46 -32 -65 -54 -56 -12 4 -15 28 -15 134 0 71 3 132 7 135 16 17 33 4 38
-30z m311 25 c4 -6 -2 -19 -14 -29 -20 -15 -22 -27 -22 -116 0 -103 -8 -130
-34 -120 -13 5 -16 24 -16 111 0 95 -2 106 -20 116 -11 6 -20 20 -20 30 0 18
7 20 59 20 35 0 63 -5 67 -12z m136 -5 c15 -14 18 -32 18 -122 0 -58 -4 -111
-8 -118 -15 -24 -56 -32 -90 -17 -32 13 -32 13 -33 91 -2 119 1 147 18 166 20
22 71 22 95 0z m162 -2 c11 -9 14 -41 14 -126 1 -131 -4 -139 -81 -133 l-42 3
-3 124 c-1 69 0 131 3 139 6 17 86 12 109 -7z m145 5 c6 -7 19 -66 28 -130 13
-94 14 -119 4 -129 -10 -9 -16 -7 -28 11 -19 28 -59 29 -66 2 -5 -19 -31 -28
-40 -12 -4 7 29 234 38 260 6 16 50 15 64 -2z m181 -6 c15 -15 20 -33 20 -70
0 -52 -23 -90 -54 -90 -19 0 -28 -16 -36 -60 -3 -22 -11 -35 -20 -35 -12 0
-16 22 -18 124 -1 69 0 131 2 138 9 21 83 16 106 -7z m84 4 c3 -9 6 -31 6 -49
0 -29 4 -35 34 -45 25 -8 37 -20 45 -42 15 -41 4 -95 -22 -113 -23 -16 -92
-20 -101 -6 -9 14 -12 245 -3 259 11 17 34 15 41 -4z m154 -122 c2 -115 0
-133 -14 -139 -9 -3 -20 0 -25 8 -10 17 -12 252 -2 263 4 4 14 5 23 4 12 -3
15 -26 18 -136z m259 28 c2 -58 5 -116 8 -129 6 -22 7 -23 25 -6 17 15 20 32
21 104 2 131 4 136 69 136 l55 0 6 -38 c3 -21 4 -83 1 -138 -4 -85 -7 -99 -21
-97 -13 3 -18 25 -25 116 -5 61 -12 112 -16 112 -11 0 -20 -54 -20 -119 0 -77
-17 -106 -58 -105 -25 2 -32 -2 -32 -17 0 -23 -25 -25 -46 -4 -21 21 -68 19
-88 -4 -10 -11 -24 -17 -31 -15 -20 8 -24 51 -6 69 12 12 17 41 19 118 2 56 9
108 15 115 7 8 29 12 66 10 l56 -3 2 -105z m347 94 c8 -20 8 -212 0 -242 -4
-14 -13 -22 -23 -20 -12 2 -17 16 -19 51 -3 39 -6 48 -20 45 -12 -2 -18 -16
-22 -48 -4 -32 -10 -46 -22 -48 -24 -5 -32 35 -18 87 8 32 8 50 -1 76 -24 65
15 115 87 115 20 0 34 -6 38 -16z m207 -5 c12 -12 19 -30 17 -46 -4 -36 -26
-41 -38 -9 -11 29 -35 34 -44 10 -9 -24 -7 -147 3 -163 13 -20 39 -7 43 21 4
27 31 31 36 5 11 -56 -42 -101 -90 -76 -35 19 -38 27 -38 137 0 89 3 105 20
122 26 26 64 26 91 -1z m167 -1 c2 -9 -5 -19 -17 -23 -19 -6 -21 -15 -22 -93
0 -85 -5 -131 -14 -140 -2 -3 -11 -2 -20 1 -12 5 -15 26 -15 117 0 89 -3 110
-14 110 -19 0 -29 17 -22 36 9 22 120 16 124 -8z m139 -4 c7 -10 13 -39 13
-66 0 -53 -24 -88 -60 -88 -16 0 -20 -7 -20 -37 0 -46 -13 -68 -34 -60 -14 5
-16 26 -16 135 0 71 3 132 8 136 13 14 95 -1 109 -20z m131 14 c17 -22 45
-249 32 -262 -8 -8 -16 -4 -32 17 -24 33 -31 34 -61 1 -17 -18 -27 -22 -32
-15 -9 15 24 242 37 259 6 6 18 12 28 12 10 0 22 -6 28 -12z m112 -49 c0 -51
16 -50 31 1 14 47 30 63 53 54 14 -6 16 -23 14 -138 -3 -109 -6 -131 -18 -131
-11 0 -16 14 -18 58 -4 73 -21 71 -42 -4 -12 -42 -21 -55 -38 -57 -22 -3 -22
-2 -22 131 0 73 3 137 7 140 14 14 33 -17 33 -54z m180 16 c0 -51 17 -51 39 0
11 25 25 45 31 45 21 0 21 -29 -1 -81 l-23 -52 22 -61 c27 -75 27 -86 3 -86
-14 0 -23 12 -33 40 -16 50 -32 52 -38 3 -3 -26 -11 -39 -22 -41 -16 -3 -18 8
-18 131 0 73 3 136 6 140 15 14 34 -8 34 -38z m238 23 c2 -12 -3 -18 -16 -18
-38 0 -52 -11 -52 -41 0 -25 5 -30 30 -35 41 -9 51 -25 52 -85 0 -63 -16 -79
-78 -79 -29 0 -44 5 -48 16 -12 31 -7 239 6 252 20 20 102 11 106 -10z m162 2
c17 -17 20 -33 20 -124 0 -102 -1 -105 -27 -126 -19 -15 -35 -19 -53 -15 -43
10 -50 31 -50 146 0 100 2 109 22 123 31 22 64 20 88 -4z m188 -123 c2 -128 1
-138 -15 -135 -16 3 -19 18 -23 113 -4 89 -8 110 -20 110 -12 0 -16 -20 -20
-96 -5 -95 -17 -129 -46 -129 -19 0 -27 19 -14 35 6 7 14 62 17 122 3 60 11
111 17 116 6 4 31 6 56 5 l45 -3 3 -138z m130 134 c19 -12 57 -250 42 -265 -9
-8 -17 -4 -34 17 -27 33 -39 34 -60 2 -39 -59 -45 -20 -21 133 18 108 36 137
73 113z m-4666 -143 c-7 -7 -12 -8 -12 -2 0 14 12 26 19 19 2 -3 -1 -11 -7
-17z m7666 -183 c-6 -14 -13 -23 -15 -21 -5 5 15 46 22 46 3 0 -1 -11 -7 -25z
m-7852 -137 c-18 -26 -22 -17 -5 14 6 11 13 17 16 15 3 -3 -2 -16 -11 -29z
m7765 -11 c-10 -9 -11 -8 -5 6 3 10 9 15 12 12 3 -3 0 -11 -7 -18z m-7853
-142 c-6 -14 -13 -23 -15 -21 -5 5 15 46 22 46 3 0 -1 -11 -7 -25z m8217
-1455 c-9 -16 -18 -30 -21 -30 -2 0 2 14 11 30 9 17 18 30 21 30 2 0 -2 -13
-11 -30z m-9719 -1118 c-18 -16 -18 -16 -6 6 6 13 14 21 18 18 3 -4 -2 -14
-12 -24z m-65 -115 c-10 -9 -11 -8 -5 6 3 10 9 15 12 12 3 -3 0 -11 -7 -18z
m-25 -44 c-8 -16 -22 -37 -31 -48 -14 -18 -14 -16 1 15 17 36 33 60 40 60 3 0
-2 -12 -10 -27z m-95 -164 c-12 -19 -21 -30 -21 -26 0 12 33 67 38 63 1 -2 -6
-19 -17 -37z m-38 -64 c-3 -9 -8 -14 -10 -11 -3 3 -2 9 2 15 9 16 15 13 8 -4z
m-42 -76 c-12 -19 -21 -30 -21 -26 0 14 31 69 36 64 3 -3 -4 -20 -15 -38z
m-40 -66 c-12 -20 -14 -14 -5 12 4 9 9 14 11 11 3 -2 0 -13 -6 -23z m-86 -154
c-20 -35 -41 -68 -47 -74 -6 -5 4 17 22 50 43 78 54 95 57 91 2 -2 -13 -32
-32 -67z m1916 -1152 c-10 -9 -11 -8 -5 6 3 10 9 15 12 12 3 -3 0 -11 -7 -18z
m-28 -47 c-5 -19 -23 -39 -23 -25 0 9 20 45 24 45 2 0 2 -9 -1 -20z m-443
-217 c-556 -7 -990 -7 -990 0 0 4 271 6 603 5 331 -2 505 -4 387 -5z m-1039
-96 c-10 -9 -11 -8 -5 6 3 10 9 15 12 12 3 -3 0 -11 -7 -18z m-45 -85 c-18
-16 -18 -16 -6 6 6 13 14 21 18 18 3 -4 -2 -14 -12 -24z m-45 -75 c-10 -9 -11
-8 -5 6 3 10 9 15 12 12 3 -3 0 -11 -7 -18z m-21 -37 c-6 -11 -13 -20 -16 -20
-2 0 0 9 6 20 6 11 13 20 16 20 2 0 0 -9 -6 -20z"/>
<path d="M8418 7612 c-82 -50 -71 -183 19 -227 87 -42 183 21 183 121 0 95
-120 158 -202 106z m122 -27 c8 -10 10 -29 6 -54 -4 -25 -1 -49 9 -67 7 -15
12 -31 9 -36 -11 -17 -34 -7 -49 22 -17 33 -45 40 -45 11 0 -22 -25 -45 -40
-36 -11 7 -14 157 -3 168 13 14 100 7 113 -8z"/>
<path d="M8470 7540 c0 -11 7 -20 15 -20 8 0 15 9 15 20 0 11 -7 20 -15 20 -8
0 -15 -9 -15 -20z"/>
<path d="M7017 7069 c-74 -39 -127 -151 -112 -237 15 -94 75 -137 177 -130 70
5 121 41 156 109 20 37 23 56 20 121 -3 65 -7 80 -28 104 -52 55 -143 70 -213
33z"/>
<path d="M2760 5954 c0 -46 13 -55 33 -22 13 20 0 68 -18 68 -11 0 -15 -12
-15 -46z"/>
<path d="M3658 5905 c-4 -34 11 -62 25 -48 9 8 9 46 1 67 -10 27 -22 18 -26
-19z"/>
<path d="M3978 5934 c-12 -11 -10 -72 2 -79 6 -3 13 1 16 10 8 20 -8 80 -18
69z"/>
<path d="M6134 5987 c-10 -27 1 -180 13 -184 22 -8 31 32 26 115 -4 61 -9 82
-20 82 -7 0 -16 -6 -19 -13z"/>
<path d="M6436 5978 c-12 -48 -7 -155 9 -168 27 -23 36 2 33 96 -2 72 -6 89
-19 92 -10 2 -19 -6 -23 -20z"/>
<path d="M4855 5918 c-8 -32 -4 -58 10 -61 14 -3 18 49 6 70 -8 16 -10 15 -16
-9z"/>
<path d="M6996 5919 c-10 -49 -7 -69 8 -69 22 0 27 15 20 59 -8 49 -19 53 -28
10z"/>
<path d="M7154 5986 c-10 -26 1 -71 18 -74 20 -4 32 29 24 64 -7 26 -33 33
-42 10z"/>
<path d="M7305 5981 c-9 -30 4 -63 23 -59 12 2 17 14 17 38 0 40 -29 55 -40
21z"/>
<path d="M8207 5980 c-7 -28 3 -60 19 -60 10 0 14 13 14 40 0 43 -23 57 -33
20z"/>
<path d="M3852 5578 c-7 -7 -12 -45 -12 -95 0 -67 3 -85 16 -90 25 -9 34 16
34 98 0 80 -14 111 -38 87z"/>
<path d="M4010 5571 c-15 -29 5 -68 26 -50 8 6 14 19 14 29 0 10 -6 23 -14 29
-12 10 -17 8 -26 -8z"/>
<path d="M4008 5448 c-6 -36 2 -59 20 -56 23 5 24 71 1 76 -11 2 -18 -5 -21
-20z"/>
<path d="M4176 5518 c-15 -57 -1 -103 22 -75 7 8 8 26 2 51 -10 47 -16 53 -24
24z"/>
<path d="M4334 5566 c-10 -25 0 -61 19 -64 14 -3 17 4 17 37 0 30 -4 41 -15
41 -9 0 -18 -6 -21 -14z"/>
<path d="M4492 5468 c-21 -21 -12 -78 13 -78 25 0 32 46 12 73 -10 14 -15 15
-25 5z"/>
<path d="M4810 5546 c0 -18 -3 -61 -7 -95 -6 -62 -6 -63 18 -59 23 3 24 6 27
96 3 87 2 92 -18 92 -16 0 -20 -6 -20 -34z"/>
<path d="M5164 5566 c-9 -24 0 -51 19 -54 14 -3 17 4 17 32 0 26 -4 36 -15 36
-9 0 -18 -6 -21 -14z"/>
<path d="M5690 5541 c0 -44 11 -58 30 -36 17 20 9 69 -12 73 -15 3 -18 -4 -18
-37z"/>
<path d="M5846 5494 c-11 -28 -6 -54 9 -54 10 0 15 11 15 35 0 36 -13 47 -24
19z"/>
<path d="M6357 5464 c-4 -4 -7 -22 -7 -41 0 -27 4 -33 21 -33 17 0 20 5 17 37
-3 35 -17 51 -31 37z"/>
<path d="M6517 5573 c-13 -13 -8 -170 6 -182 24 -20 37 9 37 85 0 40 -3 79 -6
88 -6 16 -26 21 -37 9z"/>
<path d="M6865 5520 c-3 -14 -7 -38 -8 -55 -2 -24 2 -30 18 -30 17 0 20 6 17
40 -2 21 -7 46 -12 54 -7 13 -10 11 -15 -9z"/>
</g>
</svg>
